<svg
   xmlns:dc="http://purl.org/dc/elements/1.1/"
   xmlns:cc="http://creativecommons.org/ns#"
   xmlns:rdf="http://www.w3.org/1999/02/22-rdf-syntax-ns#"
   xmlns:svg="http://www.w3.org/2000/svg"
   xmlns="http://www.w3.org/2000/svg"
   xmlns:sodipodi="http://sodipodi.sourceforge.net/DTD/sodipodi-0.dtd"
   xmlns:inkscape="http://www.inkscape.org/namespaces/inkscape"
   version="1.1"
   id="svg29"
   xml:space="preserve"
   width="60"
   height="60"
   viewBox="0 0 384 384"
   sodipodi:docname="leaf-wave.svg"
   inkscape:version="0.92.4 5da689c313, 2019-01-14"><metadata
     id="metadata35"><rdf:RDF><cc:Work
         rdf:about=""><dc:format>image/svg+xml</dc:format><dc:type
           rdf:resource="http://purl.org/dc/dcmitype/StillImage" /><dc:title></dc:title></cc:Work></rdf:RDF></metadata><defs
     id="defs33"><clipPath
       clipPathUnits="userSpaceOnUse"
       id="clipPath45"><path
         d="M 0,360 H 360 V 0 H 0 Z"
         id="path43"
         inkscape:connector-curvature="0" /></clipPath><clipPath
       clipPathUnits="userSpaceOnUse"
       id="clipPath57"><path
         d="M 102.43,128.582 H 329.248 V 20.7871 H 102.43 Z"
         id="path55"
         inkscape:connector-curvature="0" /></clipPath><clipPath
       clipPathUnits="userSpaceOnUse"
       id="clipPath369"><path
         d="m 26.7681,124.847 h 4.7612 v -9.082 h -4.7612 z"
         id="path367"
         inkscape:connector-curvature="0" /></clipPath><clipPath
       clipPathUnits="userSpaceOnUse"
       id="clipPath385"><path
         d="m 32.6743,125.033 h 5.041 v -9.268 h -5.041 z"
         id="path383"
         inkscape:connector-curvature="0" /></clipPath><clipPath
       clipPathUnits="userSpaceOnUse"
       id="clipPath401"><path
         d="m 38.8877,124.847 h 5.1479 v -8.882 h -5.1479 z"
         id="path399"
         inkscape:connector-curvature="0" /></clipPath><clipPath
       clipPathUnits="userSpaceOnUse"
       id="clipPath417"><path
         d="m 44.7944,124.847 h 5.4146 v -8.882 h -5.4146 z"
         id="path415"
         inkscape:connector-curvature="0" /></clipPath><clipPath
       clipPathUnits="userSpaceOnUse"
       id="clipPath433"><path
         d="m 49.981,124.847 h 4.9345 v -8.882 H 49.981 Z"
         id="path431"
         inkscape:connector-curvature="0" /></clipPath><clipPath
       clipPathUnits="userSpaceOnUse"
       id="clipPath449"><path
         d="m 55.7539,124.847 h 5.1748 v -8.882 h -5.1748 z"
         id="path447"
         inkscape:connector-curvature="0" /></clipPath><clipPath
       clipPathUnits="userSpaceOnUse"
       id="clipPath465"><path
         d="m 61.6606,124.847 h 5.4146 v -8.882 h -5.4146 z"
         id="path463"
         inkscape:connector-curvature="0" /></clipPath><clipPath
       clipPathUnits="userSpaceOnUse"
       id="clipPath481"><path
         d="m 67.8208,124.847 h 5.1479 v -8.882 h -5.1479 z"
         id="path479"
         inkscape:connector-curvature="0" /></clipPath><clipPath
       clipPathUnits="userSpaceOnUse"
       id="clipPath497"><path
         d="m 74.207,117.658 h 1.2803 v -1.693 H 74.207 Z"
         id="path495"
         inkscape:connector-curvature="0" /></clipPath><clipPath
       clipPathUnits="userSpaceOnUse"
       id="clipPath511"><path
         d="m 76.7271,124.847 h 4.7744 v -8.882 h -4.7744 z"
         id="path509"
         inkscape:connector-curvature="0" /></clipPath><clipPath
       clipPathUnits="userSpaceOnUse"
       id="clipPath527"><path
         d="m 82.6069,124.847 h 4.2412 v -8.882 h -4.2412 z"
         id="path525"
         inkscape:connector-curvature="0" /></clipPath><clipPath
       clipPathUnits="userSpaceOnUse"
       id="clipPath543"><path
         d="m 87.7002,124.847 h 4.2412 v -8.882 h -4.2412 z"
         id="path541"
         inkscape:connector-curvature="0" /></clipPath><clipPath
       clipPathUnits="userSpaceOnUse"
       id="clipPath559"><path
         d="m 92.4736,124.847 h 5.5078 v -8.882 h -5.5078 z"
         id="path557"
         inkscape:connector-curvature="0" /></clipPath><clipPath
       clipPathUnits="userSpaceOnUse"
       id="clipPath575"><path
         d="m 98.7266,124.847 h 4.2414 v -8.882 h -4.2414 z"
         id="path573"
         inkscape:connector-curvature="0" /></clipPath><clipPath
       clipPathUnits="userSpaceOnUse"
       id="clipPath591"><path
         d="m 103.833,124.847 h 5.108 v -8.936 h -5.108 z"
         id="path589"
         inkscape:connector-curvature="0" /></clipPath><clipPath
       clipPathUnits="userSpaceOnUse"
       id="clipPath607"><path
         d="m 109.927,117.658 h 1.28 v -1.693 h -1.28 z"
         id="path605"
         inkscape:connector-curvature="0" /></clipPath><clipPath
       clipPathUnits="userSpaceOnUse"
       id="clipPath621"><path
         d="m 112.353,125.033 h 5.041 v -9.268 h -5.041 z"
         id="path619"
         inkscape:connector-curvature="0" /></clipPath><clipPath
       clipPathUnits="userSpaceOnUse"
       id="clipPath637"><path
         d="m 118.446,124.847 h 5.108 v -8.936 h -5.108 z"
         id="path635"
         inkscape:connector-curvature="0" /></clipPath><clipPath
       clipPathUnits="userSpaceOnUse"
       id="clipPath653"><path
         d="m 124.14,125.033 h 5.041 v -9.268 h -5.041 z"
         id="path651"
         inkscape:connector-curvature="0" /></clipPath><clipPath
       clipPathUnits="userSpaceOnUse"
       id="clipPath737"><path
         d="M 99.6772,275.442 H 339.159 V 59.7979 H 99.6772 Z"
         id="path735"
         inkscape:connector-curvature="0" /></clipPath><clipPath
       clipPathUnits="userSpaceOnUse"
       id="clipPath753"><path
         d="M 88.3333,304.813 H 320.8 V 167.506 H 88.3333 Z"
         id="path751"
         inkscape:connector-curvature="0" /></clipPath></defs><sodipodi:namedview
     pagecolor="#ffffff"
     bordercolor="#666666"
     borderopacity="1"
     objecttolerance="10"
     gridtolerance="10"
     guidetolerance="10"
     inkscape:pageopacity="0"
     inkscape:pageshadow="2"
     inkscape:window-width="1920"
     inkscape:window-height="1052"
     id="namedview31"
     showgrid="false"
     inkscape:zoom="0.63124012"
     inkscape:cx="271.44173"
     inkscape:cy="241.75121"
     inkscape:window-x="0"
     inkscape:window-y="28"
     inkscape:window-maximized="0"
     inkscape:current-layer="layer3" /><g
     inkscape:groupmode="layer"
     id="layer3"
     inkscape:label="leaf-wave"
     style="display:inline"
     transform="translate(0,-96)"><g
       inkscape:groupmode="layer"
       id="layer4"
       inkscape:label="leaves"
       style="display:inline"><path
         d="m 328.05146,163.83721 c -34.82133,-8.416 -54.696,22.05333 -54.89333,22.36133 l -2.17467,3.412 3.77333,1.46134 c 6.836,2.65066 12.93867,3.724 18.34134,3.724 11.14666,0 19.31333,-4.57467 24.77466,-9.30934 8.656,-7.50266 12.34,-16.83333 12.492,-17.22666 l 1.368,-3.532 z"
         style="display:inline;opacity:0.39999402;fill:#000000;fill-opacity:1;fill-rule:nonzero;stroke:none;stroke-width:1.33333325"
         id="path755"
         inkscape:connector-curvature="0" /><path
         d="m 250.56052,109.58334 -3.98133,0.71334 c -0.288,0.052 -28.856,5.492 -33.208,33.80266 l -0.576,3.744 3.788,0.076 c 0.024,0.001 0.0867,0.003 0.18266,0.003 1.292,0 8.78267,-0.17333 16.39734,-4.012 7.70266,-3.88267 16.956,-12.288 17.31733,-30.28267 z"
         style="display:inline;opacity:0.39999402;fill:#000000;fill-opacity:1;fill-rule:nonzero;stroke:none;stroke-width:1.33333325"
         id="path759"
         inkscape:connector-curvature="0" /><path
         d="m 245.83786,152.46361 -3.936,-0.93467 -0.14533,4.044 c -0.28667,8.02267 3.656,24.91467 20.63733,31.41867 l 3.53733,1.356 0.87467,-3.68667 c 0.0613,-0.25733 5.81067,-25.836 -20.968,-32.19733"
         style="display:inline;opacity:0.39999402;fill:#000000;fill-opacity:1;fill-rule:nonzero;stroke:none;stroke-width:1.33333325"
         id="path763"
         inkscape:connector-curvature="0" /><path
         d="m 116.68879,156.87374 -3.68,-0.87333 -0.13467,3.77866 c -0.25066,6.96534 3.17467,21.628 17.916,27.276 l 3.30534,1.26534 0.81733,-3.444 c 0.0547,-0.228 1.312,-5.668 -0.276,-11.8 -1.50533,-5.804 -5.84,-13.32667 -17.948,-16.20267"
         style="display:inline;opacity:0.39999402;fill:#000000;fill-opacity:1;fill-rule:nonzero;stroke:none;stroke-width:1.33333325"
         id="path767"
         inkscape:connector-curvature="0" /><path
         d="m 26.252,260.93947 -3.844,-1.26133 -0.484,4.01733 c -0.792,6.58933 1.28533,20.78 14.82533,27.316 l 3.41067,1.648 1.18133,-3.60133 c 0.072,-0.21334 1.704,-5.28934 0.68267,-11.24534 -0.96667,-5.65333 -4.48933,-13.16933 -15.772,-16.87333"
         style="display:inline;opacity:0.39999402;fill:#000000;fill-opacity:1;fill-rule:nonzero;stroke:none;stroke-width:1.33333325"
         id="path771"
         inkscape:connector-curvature="0" /></g><g
       inkscape:groupmode="layer"
       id="layer6"
       inkscape:label="wave"><path
         d="m 172.89653,436.26947 c -5.07333,0 -9.84667,-2.696 -13.09467,-7.39867 -3.04133,-4.40133 -4.66266,-10.39466 -4.692,-17.34266 l -11.58,-193.43333 v -0.19067 c 0,-8.57466 -3.244,-12.13333 -4.98,-12.13333 -1.73733,0 -4.98133,3.55867 -4.98133,12.13333 l -0.004,0.22534 -5.20667,147.91733 c -0.044,17.05333 -9.24,24.82266 -17.788,24.82266 -8.54533,0 -17.73999,-7.76133 -17.78799,-24.804 L 87.6912,242.62014 c 0,-8.57466 -3.244,-12.13333 -4.98133,-12.13333 -1.736,0 -4.98,3.55867 -4.98,12.13333 l -0.024,0.54933 -5.228,60.71867 c -0.10267,16.93733 -9.268,24.656 -17.788,24.656 -5.07334,0 -9.84667,-2.696 -13.09467,-7.39867 -3.06933,-4.444 -4.692,-10.51066 -4.692,-17.54266 0,-3.536 2.86667,-6.404 6.404,-6.404 3.536,0 6.40267,2.868 6.40267,6.404 0,8.57466 3.244,12.13466 4.98,12.13466 1.73733,0 4.98133,-3.56 4.98133,-12.13466 l 0.0227,-0.54934 5.22933,-60.71866 c 0.10133,-16.93867 9.268,-24.656 17.78667,-24.656 8.54533,0 17.73866,7.764 17.788,24.804 l 5.092,123.44666 c 0,8.57467 3.24266,12.13467 4.97999,12.13467 1.73734,0 4.98,-3.56 4.98,-12.13467 l 0.004,-0.22533 5.208,-147.91866 c 0.0427,-17.052 9.24,-24.82134 17.788,-24.82134 8.53334,0 17.716,7.74267 17.78667,24.74134 l 11.58,193.43199 v 0.192 c 0,8.57467 3.24267,12.13333 4.98,12.13333 1.73733,0 4.98,-3.55866 4.98,-12.13333 l 10e-4,-0.14 5.17067,-237.57466 c 0.0253,-17.08667 9.232,-24.87067 17.788,-24.87067 8.54133,0 17.73467,7.76134 17.78667,24.79467 l 9.47066,214.25599 c 0,8.57334 3.244,12.132 4.98,12.132 1.73734,0 4.98,-3.55866 4.98,-12.132 l 0.004,-0.19733 5.2,-169.79599 c 0.0347,-17.06534 9.23733,-24.83734 17.78667,-24.83734 8.54533,0 17.74,7.76134 17.788,24.804 l 5.14,124.52133 c 0,8.57334 3.244,12.132 4.98,12.132 1.73733,0 4.98133,-3.55866 4.98133,-12.132 l 0.004,-0.22533 3.05867,-86.66533 c 0.0413,-17.056 9.23866,-24.824 17.78666,-24.824 8.56667,0 17.788,7.804 17.788,24.94 l 0.872,48.24 c 0.001,8.69066 3.244,12.25066 4.98134,12.25066 1.73733,0 4.98,-3.56 4.98,-12.13466 0,-3.536 2.868,-6.404 6.404,-6.404 3.536,0 6.404,2.868 6.404,6.404 0,17.136 -9.22134,24.94 -17.788,24.94 -5.07467,0 -9.84667,-2.69467 -13.09467,-7.39734 -3.07067,-4.444 -4.69333,-10.50933 -4.69333,-17.54266 l -0.872,-48.24 c -10e-4,-8.69067 -3.244,-12.24934 -4.98134,-12.24934 -1.736,0 -4.98,3.55867 -4.98,12.13334 l -0.004,0.22666 -3.05866,86.66667 c -0.0427,17.052 -9.24,24.82133 -17.788,24.82133 -5.07334,0 -9.84667,-2.69733 -13.09467,-7.39866 -3.04933,-4.41467 -4.67067,-10.42934 -4.692,-17.404 l -5.14,-124.52267 c 0,-8.57466 -3.244,-12.13333 -4.98133,-12.13333 -1.736,0 -4.98,3.55867 -4.98,12.13333 l -0.003,0.196 -5.2,169.796 c -0.036,17.06533 -9.23733,24.83866 -17.788,24.83866 -5.07333,0 -9.84666,-2.69733 -13.09466,-7.39866 -3.04934,-4.412 -4.66934,-10.42534 -4.69334,-17.396 L 205.8159,173.68548 c 0,-8.57467 -3.244,-12.13467 -4.98,-12.13467 -1.73733,0 -4.98133,3.56 -4.98133,12.13467 l -0.001,0.13866 -5.16933,237.576 c -0.0253,17.08666 -9.232,24.86933 -17.788,24.86933"
         style="display:inline;opacity:0.85000598;fill:#000000;fill-opacity:1;fill-rule:nonzero;stroke:none;stroke-width:1.33333325"
         id="path739"
         inkscape:connector-curvature="0" /></g></g></svg>